<svg xmlns:xlink="http://www.w3.org/1999/xlink" xmlns="http://www.w3.org/2000/svg" viewBox="0 0 81.876 64" width="81.876"  height="64" ><defs><style>.d{fill:#193133;}.e{fill:#0c70e5;}</style></defs><g id="a"></g><g id="b"><g id="c"><g><g><path class="d" d="M3.675,59.837H1.903v4H0v-11.546H3.675c2.374,0,4,1.642,4,3.773s-1.626,3.773-4,3.773Zm-.016-5.756H1.903v3.968h1.756c1.366,0,2.146-.862,2.146-1.984s-.781-1.984-2.146-1.984Z" fill="#193133"></path><path class="d" d="M8.538,51.641h1.789v12.196h-1.789v-12.196Z" fill="#193133"></path><path class="d" d="M11.498,59.772c0-2.326,1.691-4.228,3.919-4.228,1.171,0,2.146,.602,2.602,1.252v-1.089h1.789v8.131h-1.789v-1.09c-.455,.65-1.431,1.252-2.602,1.252-2.228,0-3.919-1.903-3.919-4.228Zm6.667,0c0-1.463-.992-2.602-2.423-2.602s-2.423,1.138-2.423,2.602,.992,2.602,2.423,2.602,2.423-1.138,2.423-2.602Z" fill="#193133"></path><path class="d" d="M21.337,55.707h1.789v1.106c.504-.829,1.415-1.268,2.472-1.268,1.886,0,3.106,1.333,3.106,3.399v4.895h-1.789v-4.602c0-1.301-.65-2.065-1.691-2.065-1.187,0-2.098,.911-2.098,2.667v4h-1.789v-8.131Z" fill="#193133"></path><path class="d" d="M29.628,59.772c0-2.407,1.658-4.228,4.179-4.228,2.488,0,4.244,1.903,4.065,4.667h-6.472c.049,1.236,1.024,2.212,2.455,2.212,.911,0,1.675-.358,2.049-1.138h1.87c-.472,1.512-1.903,2.716-3.984,2.716-2.423,0-4.163-1.789-4.163-4.228Zm1.821-.829h4.504c-.277-1.317-1.203-1.903-2.195-1.903-1.122,0-2.065,.65-2.309,1.903Z" fill="#193133"></path><path class="d" d="M39.593,61.219v-3.919h-1.691v-1.594h1.691v-2.26h1.789v2.26h2.325v1.594h-2.325v3.626c0,1.025,.439,1.382,1.366,1.382,.341,0,.699-.049,.959-.163v1.594c-.374,.114-.764,.179-1.333,.179-1.561,0-2.781-.862-2.781-2.699Z" fill="#193133"></path><path class="d" d="M47.204,52.292l4.033,5.464,4.049-5.464h1.74v11.546h-1.919v-8.277l-2.701,3.67c-.573,.778-1.735,.779-2.309,.003l-2.73-3.689v8.293h-1.903v-11.546h1.74Z" fill="#193133"></path><path class="d" d="M58.279,59.772c0-2.326,1.691-4.228,3.919-4.228,1.171,0,2.147,.602,2.602,1.252v-1.089h1.789v8.131h-1.789v-1.09c-.455,.65-1.431,1.252-2.602,1.252-2.228,0-3.919-1.903-3.919-4.228Zm6.667,0c0-1.463-.992-2.602-2.423-2.602s-2.423,1.138-2.423,2.602,.992,2.602,2.423,2.602,2.423-1.138,2.423-2.602Z" fill="#193133"></path><path class="d" d="M68.118,55.707h1.789v1.447c.309-.927,1.22-1.529,2.146-1.529,.244,0,.488,.016,.699,.065v1.838c-.309-.114-.569-.146-.894-.146-1.024,0-1.951,.862-1.951,2.488v3.968h-1.789v-8.131Z" fill="#193133"></path><path class="d" d="M75.696,59.918v3.919h-1.789v-12.196h1.789v7.155l3.106-3.089h2.26l-3.626,3.626,4.439,4.504h-2.293l-3.886-3.919Z" fill="#193133"></path></g><g><path class="e" d="M27.274,18.633l-7.888-2.471c-.178-.056-.278-.246-.219-.423,.347-1.051,.772-2.082,1.268-3.072,.083-.166,.289-.231,.454-.145l7.335,3.81c-.383,.737-.702,1.511-.95,2.302Zm27.325-.008c-.248-.791-.568-1.565-.951-2.301l7.333-3.814c.165-.086,.371-.021,.454,.145,.496,.99,.922,2.02,1.269,3.07,.058,.177-.041,.367-.219,.423l-7.886,2.477Zm-24.639-4.895l-6.335-5.31c-.143-.12-.162-.334-.04-.475,.722-.835,1.507-1.622,2.341-2.346,.141-.122,.355-.103,.475,.039l5.324,6.323c-.637,.536-1.231,1.131-1.765,1.769Zm21.951-.005c-.535-.638-1.129-1.232-1.766-1.768l5.321-6.326c.12-.142,.334-.161,.475-.039,.834,.723,1.62,1.51,2.342,2.345,.122,.141,.103,.355-.04,.475l-6.332,5.313Zm-17.59-3.505l-3.828-7.326c-.086-.165-.022-.37,.144-.454,.989-.498,2.018-.926,3.068-1.275,.177-.059,.368,.041,.424,.218l2.489,7.882c-.789,.249-1.562,.57-2.297,.955Zm13.226-.003c-.736-.384-1.51-.705-2.3-.954l2.485-7.883c.056-.178,.247-.277,.423-.219,1.05,.348,2.079,.775,3.069,1.273,.166,.084,.231,.289,.145,.454l-3.823,7.329Zm-7.867-1.559l-.713-8.236c-.016-.185,.122-.35,.307-.363,.551-.04,1.108-.06,1.66-.06h.004c.548,0,1.1,.02,1.647,.059,.185,.013,.323,.178,.307,.363l-.708,8.236c-.411-.035-.831-.053-1.247-.053h-.003c-.418,0-.84,.018-1.254,.054Z" fill="#0C70E5"></path><path class="e" d="M63.439,21.005l-8.237,.693c.034,.404,.051,.815,.051,1.222,0,7.893-6.422,14.315-14.315,14.315s-14.315-6.422-14.315-14.315c0-.408,.017-.819,.051-1.221l-8.237-.694c-.185-.016-.349,.123-.362,.308-.037,.533-.056,1.072-.056,1.607,0,12.638,10.281,22.919,22.919,22.919s22.919-10.281,22.919-22.919c0-.534-.019-1.073-.056-1.606-.013-.185-.177-.324-.362-.308Z" fill="#0C70E5"></path></g></g></g></g></svg>